<?xml version="1.0" encoding="utf-8"?>
<!-- Generator: Adobe Illustrator 15.0.0, SVG Export Plug-In  -->
<!DOCTYPE svg PUBLIC "-//W3C//DTD SVG 1.1//EN" "http://www.w3.org/Graphics/SVG/1.1/DTD/svg11.dtd" [
	<!ENTITY ns_flows "http://ns.adobe.com/Flows/1.0/">
]>
<svg version="1.1"
	 xmlns="http://www.w3.org/2000/svg" xmlns:xlink="http://www.w3.org/1999/xlink" xmlns:a="http://ns.adobe.com/AdobeSVGViewerExtensions/3.0/"
	 x="0px" y="0px" width="100px" height="100px" viewBox="-18.181 -4.941 100 100"
	 overflow="visible" enable-background="new -18.181 -4.941 100 100" xml:space="preserve">
<defs>
</defs>
<path fill-rule="evenodd" clip-rule="evenodd" fill="#FFFFFF" d="M35.127,41.709c0.074-5.409,2.341-8.633,2.926-13.537
	c-2.022-1.441-4.801-2.002-7.32-2.196C17.669,24.974,9.293,33.397,0.731,37.685c1.137-7.274,6.04-14.39,11.708-19.025
	c7.091-5.8,18.127-9.001,29.634-6.95C44.329,8.476,44.075,2.734,46.834,0c4.423,3.308,6.39,8.232,9.876,13.537
	c1.257,1.91,3.168,4.541,4.758,6.953c1.072,1.623,4.389,5.507,4.023,7.316c-0.312,1.536-5.389,3.675-6.951,4.391
	C50.688,35.794,42.621,39.702,35.127,41.709z"/>
<path fill-rule="evenodd" clip-rule="evenodd" fill="#FFFFFF" d="M30.003,47.199c1.691,4.291-2.192,8.91-2.195,13.9
	c7.901,3.896,18.055,1.66,25.245-2.193c4.543-2.436,7.996-5.99,12.074-7.683c-3.96,16.674-17.469,28.848-40.614,26.343
	c-3.472,2.258-2.618,8.844-5.486,11.707c-4.639-3.277-6.768-8.888-9.879-13.537C6.041,71.098,2.241,66.708,0,61.468
	C8.951,55.661,19.606,51.562,30.003,47.199z"/>
</svg>
